<?xml version="1.0" encoding="UTF-8" standalone="no"?>
<svg width="60px" height="60px" viewBox="0 0 60 60" version="1.1" xmlns="http://www.w3.org/2000/svg" xmlns:xlink="http://www.w3.org/1999/xlink">
    <!-- Generator: Sketch 39.1 (31720) - http://www.bohemiancoding.com/sketch -->
    <title>social-linkedin-circular-button</title>
    <desc>Created with Sketch.</desc>
    <defs>
        <polygon id="path-1" points="29.9752683 0.0585365854 0.0087804878 0.0585365854 0.0087804878 60.0002927 59.9417561 60.0002927 59.9417561 0.0585365854 29.9752683 0.0585365854"></polygon>
    </defs>
    <g id="Welcome" stroke="none" stroke-width="1" fill="none" fill-rule="evenodd">
        <g id="Desktop-HD-Copy-3" transform="translate(-5839.000000, -381.000000)">
            <g id="social-linkedin-circular-button" transform="translate(5839.000000, 381.000000)">
                <g id="Group-3">
                    <mask id="mask-2" fill="white">
                        <use xlink:href="#path-1"></use>
                    </mask>
                    <g id="Clip-2"></g>
                    <path d="M29.970878,0.0585365854 C13.4177561,0.0585365854 0,13.4761463 0,30.0294146 C0,46.5825366 13.4177561,60.0002927 29.970878,60.0002927 C46.524,60.0002927 59.9417561,46.5825366 59.9417561,30.0294146 C59.9417561,13.4761463 46.524,0.0585365854 29.970878,0.0585365854 L29.970878,0.0585365854 Z M29.970878,55.3173659 C16.0043415,55.3173659 4.68292683,43.9958049 4.68292683,30.0294146 C4.68292683,16.062878 16.0043415,4.74146341 29.970878,4.74146341 C43.9372683,4.74146341 55.2588293,16.062878 55.2588293,30.0294146 C55.2588293,43.9958049 43.9372683,55.3173659 29.970878,55.3173659 L29.970878,55.3173659 Z" id="Fill-1" fill="#FFFFFF" mask="url(#mask-2)"></path>
                </g>
                <path d="M14.9966341,45.0019024 L20.6158537,45.0019024 L20.6158537,22.5237073 L14.9966341,22.5237073 L14.9966341,45.0019024 Z M37.4742439,22.5237073 C32.6632683,22.6041951 30.2966341,26.1112683 29.9817073,26.2701951 L29.9817073,22.5237073 L24.3624878,22.5237073 L24.3624878,45.0019024 L29.9817073,45.0019024 L29.9817073,31.889561 C29.9817073,31.4088293 31.1673659,27.5581463 35.6009268,28.1435122 C37.9830732,28.2990732 39.2669268,31.4487805 39.347561,31.889561 L39.347561,45.0019024 L44.945122,45.0276585 L44.945122,29.4657073 C44.7472683,27.2198049 43.6246829,22.6041951 37.4742439,22.5237073 L37.4742439,22.5237073 Z M17.8062439,15.0310244 C16.2547317,15.0310244 14.9966341,16.2875122 14.9966341,17.8407805 C14.9966341,19.3939024 16.2547317,20.6503902 17.8062439,20.6503902 C19.3570244,20.6503902 20.6158537,19.3939024 20.6158537,17.8407805 C20.6158537,16.2875122 19.3570244,15.0310244 17.8062439,15.0310244 L17.8062439,15.0310244 Z" id="Fill-4" fill="#FFFFFF"></path>
            </g>
        </g>
    </g>
</svg>